<svg xmlns="http://www.w3.org/2000/svg" width="102.192" height="59.815" viewBox="0 0 102.192 59.815">
  <g id="그룹_866" data-name="그룹 866" transform="translate(-5665.222 -137.103)">
    <path id="패스_461" data-name="패스 461" d="M5728.875,160.9c-.4,0-.591-.26-.644-.708s-1.981-18.158-2.274-20.842c-.04-.389-.137-1.106-.137-1.366a.571.571,0,0,1,.581-.628c.92,0,5.92,1.17,11.226,4.884a5.671,5.671,0,0,0-4.285,5.316c.013,2.911,2.1,4.518,2.1,7.44C5735.469,159.757,5730,160.9,5728.875,160.9Z" transform="translate(-0.001 -0.258)" fill="#fff"/>
    <path id="패스_462" data-name="패스 462" d="M5745.669,169.957a3.829,3.829,0,0,0,.24.535.528.528,0,0,0,.475.3,1.19,1.19,0,0,0,.449-.118c.4-.184,16.568-7.715,19-8.836.355-.174,1.026-.471,1.244-.6a.579.579,0,0,0,.337-.515.569.569,0,0,0-.093-.318,19.613,19.613,0,0,0-4.481-3.963,20.019,20.019,0,0,1-10.142,2.927c-1.181,0-1.448-.078-2.256-.074-2.358.011-2.944,1.017-3.029,3.08-.013.391-.017.912-.044,1.49C5747.295,165.708,5747.077,168.254,5745.669,169.957Z" transform="translate(-0.001 -0.258)" fill="#fff"/>
    <g id="그룹_508" data-name="그룹 508" transform="translate(-0.001 -0.258)">
      <g id="그룹_507" data-name="그룹 507">
        <path id="패스_463" data-name="패스 463" d="M5738.724,143.038c-1.732.329-4.29,1.89-4.276,4.663,0,2.515,2.06,4.041,2.069,7.333a5.846,5.846,0,0,1-2.837,5.074c.595-.047,1.252-.084,1.971-.084a15.915,15.915,0,0,1,2.478.148l7.74-9.5A32.465,32.465,0,0,0,5738.724,143.038Z" fill="#fff"/>
        <path id="패스_464" data-name="패스 464" d="M5745.225,168.694c.973-1.521,1.1-3.932,1.181-6.4.089-2.3.573-4.028,3.642-4.039.684,0,1.327.094,2.5.089a18.212,18.212,0,0,0,9.277-2.587,32.209,32.209,0,0,0-15.96-5.088c-.444,1.243-3.868,10.777-4.13,11.547a12.235,12.235,0,0,1,1.39,2.023A22.822,22.822,0,0,1,5745.225,168.694Z" fill="#fff"/>
      </g>
    </g>
    <g id="그룹_509" data-name="그룹 509" transform="translate(-0.001 -0.258)">
      <path id="패스_465" data-name="패스 465" d="M5712.884,182.34c0,8.877,5.862,14.836,14.592,14.836a18.417,18.417,0,0,0,10.262-2.851c-.066-.128-2.327-4.585-2.4-4.729a12.821,12.821,0,0,1-6.749,1.976c-5.045,0-8.709-3.881-8.709-9.232,0-6.106,4.379-9.3,8.7-9.3a11.811,11.811,0,0,1,3.1.429,7.849,7.849,0,0,0,1.95.3c1.523,0,2.433-.649,3.33-2.387,0,0,.569-1.115.666-1.295a18.941,18.941,0,0,0-10.151-2.651C5718.746,167.439,5712.884,173.432,5712.884,182.34Z" fill="#fff"/>
      <path id="패스_466" data-name="패스 466" d="M5677.945,179.171c-2.4-1.125-4.374-2.031-4.374-3.869,0-1.4,1.128-2.429,3.339-2.429a11.5,11.5,0,0,1,2.181.222,6.194,6.194,0,0,0,1.061.115c1.945,0,3.037-1.159,3.766-3.35l.3-.9a20.147,20.147,0,0,0-7.607-1.521c-6.576,0-10.044,4.214-10.04,8.592a7.385,7.385,0,0,0,1.772,5.061,15.9,15.9,0,0,0,5.24,3.588c2.7,1.329,5.147,2.318,5.147,4.282,0,1.75-1.8,2.743-4.223,2.743a13.165,13.165,0,0,1-6.564-2.121l-2.717,5.1a18.826,18.826,0,0,0,9.742,2.491c6.133,0,10.778-3.519,10.778-8.934C5685.743,182.853,5681.435,180.859,5677.945,179.171Z" fill="#fff"/>
      <path id="패스_467" data-name="패스 467" d="M5701.942,181.685l11.133-13.646h-7.935l-8.868,11.776h-.138V168.039H5689.6v28.9h.386c2.829,0,6.19-1.308,6.19-6.026v-6.634h.134l9.05,12.3h8.312Z" fill="#fff"/>
    </g>
  </g>
</svg>
